<?xml version="1.0" standalone="no"?><!-- Generator: Adobe Fireworks CS5, Export SVG Extension by Aaron Beall (http://fireworks.abeall.com) . Version: 0.6.1  --><!DOCTYPE svg PUBLIC "-//W3C//DTD SVG 1.1//EN" "http://www.w3.org/Graphics/SVG/1.1/DTD/svg11.dtd"><svg id="Sprite-Page%201" viewBox="0 0 64 192" style="background-color:#ffffff00" version="1.1"	xmlns="http://www.w3.org/2000/svg" xmlns:xlink="http://www.w3.org/1999/xlink" xml:space="preserve"	x="0px" y="0px" width="64px" height="192px">	<defs>		<filter id="filter1" x="-100%" y="-100%" width="300%" height="300%">			<!-- Drop Shadow -->			<feOffset result="out" in="SourceGraphic" dx="0" dy="2"/>			<feColorMatrix result="out" in="out" type="matrix" values="0 0 0 0.1333 0  0 0 0 0.1333 0  0 0 0 0.1333 0  0 0 0 1 0"/>			<feGaussianBlur result="out" in="out" stdDeviation="0"/>			<feBlend in="SourceGraphic" in2="out" mode="normal" result="Drop_Shadow1"/>		</filter>		<filter id="filter2" x="-100%" y="-100%" width="300%" height="300%">			<!-- Drop Shadow -->			<feOffset result="out" in="SourceGraphic" dx="0" dy="2"/>			<feColorMatrix result="out" in="out" type="matrix" values="0 0 0 0.1333 0  0 0 0 0.1333 0  0 0 0 0.1333 0  0 0 0 1 0"/>			<feGaussianBlur result="out" in="out" stdDeviation="0"/>			<feBlend in="SourceGraphic" in2="out" mode="normal" result="Drop_Shadow2"/>		</filter>	</defs>	<g id="Layer%201">		<g>			<g id="g3783-5-2">				<path d="M 26 0 C 26 0 20.8742 3.5358 19.375 3.75 C 18.0625 3.9375 16.8618 4 14.8059 3 C 12.75 2 10.5384 0 10.5384 0 L -0.5438 10.8206 C 5.9615 14.6889 5.8424 17.5318 4.1758 24.1512 C 3.7232 25.9487 3.1968 27.7617 2.807 29.5257 C 1.068 37.3942 2.3592 44.3614 19 45.915 L 26 51.9855 L 33 45.915 C 49.6408 44.3614 50.932 37.3942 49.193 29.5257 C 48.8032 27.7617 48.2768 25.9487 47.8242 24.1512 C 46.1576 17.5318 46.0385 14.6889 52.5438 10.8206 L 41.4616 0 C 41.4616 0 39.25 2 37.1941 3 C 35.1382 4 33.9375 3.9375 32.625 3.75 C 31.1258 3.5358 26 0 26 0 ZM 7.97 21 C 8.5711 17.2117 8.1292 13.5197 4.425 10.46 L 10.875 4 C 10.875 4 12.1677 5.1403 14.0625 6.0625 C 15.9573 6.9847 17.5625 7.1875 19.25 6.875 C 22.7232 6.2318 26 4 26 4 C 26 4 29.2768 6.2318 32.75 6.875 C 34.4375 7.1875 36.0427 6.9847 37.9375 6.0625 C 39.8323 5.1403 41.125 4 41.125 4 L 47.575 10.46 C 43.8708 13.5197 43.4289 17.2117 44.03 21 L 7.97 21 ZM 6.315 38 L 45.685 38 C 43.9096 40.5019 39.8776 42.3197 31.7679 43.013 L 26 48.015 L 20.2321 43.013 C 12.1224 42.3197 8.0904 40.5019 6.315 38 Z" fill="#2c1c16"/>			</g>		</g>		<path filter="url(#filter1)" d="M 12 95.0096 L 24.1191 86.2616 C 24.5168 85.9739 25.0701 85.9295 25.525 86.0988 C 26.0239 86.2826 26.468 86.7834 26.4431 87.3313 C 26.4376 87.474 26.4034 87.9691 26.3545 88.1044 L 24.9696 92 L 48 92 L 48 98 L 24.9698 98 L 26.3547 101.8676 C 26.405 102.0081 26.4379 102.5417 26.4434 102.6903 C 26.4646 103.3319 25.8817 103.8705 25.2664 103.9745 C 24.8898 104.0371 24.4371 103.991 24.1194 103.7621 L 12 95.0096 ZM 35.1867 66.32 C 33.4267 64.56 30.5733 64.56 28.8134 66.32 L 3.32 91.8133 C 1.56 93.5733 1.56 96.4267 3.32 98.1867 L 28.8134 123.68 C 30.5733 125.44 33.4267 125.44 35.1867 123.68 L 60.68 98.1867 C 62.44 96.4267 62.44 93.5733 60.68 91.8133 L 35.1867 66.32 Z" fill="#ffffff"/>		<path filter="url(#filter2)" d="M 52 160.0096 L 39.8809 151.2616 C 39.4832 150.9739 38.9299 150.9295 38.4751 151.0988 C 37.9761 151.2826 37.532 151.7834 37.5569 152.3313 C 37.5624 152.474 37.5967 152.9691 37.6455 153.1044 L 39.0304 157 L 16 157 L 16 163 L 39.0302 163 L 37.6453 166.8676 C 37.595 167.0081 37.5621 167.5417 37.5566 167.6903 C 37.5354 168.3319 38.1184 168.8705 38.7336 168.9745 C 39.1101 169.0371 39.563 168.991 39.8806 168.7621 L 52 160.0096 ZM 28.8134 131.32 C 30.5732 129.56 33.4268 129.56 35.1866 131.32 L 60.6801 156.8133 C 62.4399 158.5733 62.4399 161.4267 60.6801 163.1867 L 35.1866 188.68 C 33.4268 190.44 30.5732 190.44 28.8134 188.68 L 3.3199 163.1867 C 1.5601 161.4267 1.5601 158.5733 3.3199 156.8133 L 28.8134 131.32 Z" fill="#ffffff"/>	</g></svg>