<?xml version="1.0" standalone="no"?><!DOCTYPE svg PUBLIC "-//W3C//DTD SVG 1.1//EN" "http://www.w3.org/Graphics/SVG/1.1/DTD/svg11.dtd"><svg viewBox="0 0 64 256" style="background-color:#ffffff00" version="1.1"	xmlns="http://www.w3.org/2000/svg" xmlns:xlink="http://www.w3.org/1999/xlink" xml:space="preserve"	x="0" y="0" width="64" height="256">	<defs>		<filter id="filter1" x="-100%" y="-100%" width="300%" height="300%">			<!-- Drop Shadow -->			<feOffset result="out" in="SourceGraphic" dx="0" dy="2"/>			<feColorMatrix result="out" in="out" type="matrix" values="0 0 0 0.1333 0  0 0 0 0.1333 0  0 0 0 0.1333 0  0 0 0 1 0"/>			<feGaussianBlur result="out" in="out" stdDeviation="0"/>			<feBlend in="SourceGraphic" in2="out" mode="normal" result="Drop_Shadow1"/>		</filter>		<filter id="filter2" x="-100%" y="-100%" width="300%" height="300%">			<!-- Drop Shadow -->			<feOffset result="out" in="SourceGraphic" dx="0" dy="2"/>			<feColorMatrix result="out" in="out" type="matrix" values="0 0 0 0.1333 0  0 0 0 0.1333 0  0 0 0 0.1333 0  0 0 0 1 0"/>			<feGaussianBlur result="out" in="out" stdDeviation="0"/>			<feBlend in="SourceGraphic" in2="out" mode="normal" result="Drop_Shadow2"/>		</filter>		<filter id="filter3" x="-100%" y="-100%" width="300%" height="300%">			<!-- Drop Shadow -->			<feOffset result="out" in="SourceGraphic" dx="0" dy="1"/>			<feColorMatrix result="out" in="out" type="matrix" values="0 0 0 1 0  0 0 0 0.6 0  0 0 0 0.2 0  0 0 0 0.502 0"/>			<feGaussianBlur result="out" in="out" stdDeviation="0"/>			<feBlend in="SourceGraphic" in2="out" mode="normal" result="Drop_Shadow3"/>		</filter>	</defs>	<g id="prev-item">		<path filter="url(#filter1)" d="M 12 159.0096 L 24.1191 150.2616 C 24.5168 149.9739 25.0701 149.9295 25.525 150.0988 C 26.0239 150.2826 26.468 150.7834 26.4431 151.3313 C 26.4376 151.474 26.4034 151.9691 26.3545 152.1044 L 24.9696 156 L 48 156 L 48 162 L 24.9698 162 L 26.3547 165.8676 C 26.405 166.0081 26.4379 166.5417 26.4434 166.6903 C 26.4646 167.3319 25.8817 167.8705 25.2664 167.9745 C 24.8898 168.0371 24.4371 167.991 24.1194 167.7621 L 12 159.0096 ZM 35.1867 130.32 C 33.4267 128.56 30.5733 128.56 28.8134 130.32 L 3.32 155.8133 C 1.56 157.5733 1.56 160.4267 3.32 162.1867 L 28.8134 187.68 C 30.5733 189.44 33.4267 189.44 35.1867 187.68 L 60.68 162.1867 C 62.44 160.4267 62.44 157.5733 60.68 155.8133 L 35.1867 130.32 Z" fill="#ffffff"/>	</g>	<g id="prev-next">		<path filter="url(#filter2)" d="M 52 224.0096 L 39.8809 215.2616 C 39.4832 214.9739 38.9299 214.9295 38.4751 215.0988 C 37.9761 215.2826 37.532 215.7834 37.5569 216.3313 C 37.5624 216.474 37.5967 216.9691 37.6455 217.1044 L 39.0304 221 L 16 221 L 16 227 L 39.0302 227 L 37.6453 230.8676 C 37.595 231.0081 37.5621 231.5417 37.5566 231.6903 C 37.5354 232.3319 38.1184 232.8705 38.7336 232.9745 C 39.1101 233.0371 39.563 232.991 39.8806 232.7621 L 52 224.0096 ZM 28.8134 195.32 C 30.5732 193.56 33.4268 193.56 35.1866 195.32 L 60.6801 220.8133 C 62.4399 222.5733 62.4399 225.4267 60.6801 227.1867 L 35.1866 252.68 C 33.4268 254.44 30.5732 254.44 28.8134 252.68 L 3.3199 227.1867 C 1.5601 225.4267 1.5601 222.5733 3.3199 220.8133 L 28.8134 195.32 Z" fill="#ffffff"/>	</g>	<g id="mile">		<path d="M 28 65 C 28 65 23.7813 68.7188 21.4688 69.125 C 20.1399 69.3584 18.7047 69.155 16.6135 68.1163 C 14.5223 67.0775 12.2727 65 12.2727 65 L 1 76.2399 C 7.6171 80.2581 7.4959 83.2112 5.8007 90.0871 C 5.3404 91.9543 4.8049 93.8375 4.4084 95.6699 C 2.6395 103.8433 5.9483 112.2612 22.875 113.875 L 28 119 L 33.125 113.875 C 50.0517 112.2612 53.3605 103.8433 51.5916 95.6699 C 51.1951 93.8375 50.6596 91.9543 50.1993 90.0871 C 48.5041 83.2112 48.3829 80.2581 55 76.2399 L 43.7273 65 C 43.7273 65 41.4777 67.0775 39.3865 68.1163 C 37.2953 69.155 35.8601 69.3584 34.5313 69.125 C 32.2188 68.7188 28 65 28 65 ZM 8.875 87 C 9.8125 82.9375 8.8928 79.0532 5.125 75.875 L 12.4688 68.5 C 12.4688 68.5 14.2601 69.5733 16.1875 70.5313 C 18.1149 71.4892 19.9063 71.375 21.5938 71.1875 C 25.1672 70.7904 28 67.9688 28 67.9688 C 28 67.9688 30.8327 70.7904 34.4063 71.1875 C 36.0938 71.375 37.8851 71.4892 39.8125 70.5313 C 41.7399 69.5733 43.5313 68.5 43.5313 68.5 L 50.875 75.875 C 47.1072 79.0532 46.1875 82.9375 47.125 87 L 8.875 87 ZM 6.9767 104 L 49.0233 104 C 43.8125 109.5 40.9375 109.9375 32.9375 111 L 28 115.5625 L 23.0625 111 C 15.0625 109.9375 12.1875 109.5 6.9767 104 Z" fill="#2c1c16"/>	</g>	<g id="skip" filter="url(#filter3)">		<path d="M 1 1 L 31 1 L 31 25 L 1 25 L 1 1 ZM 0 0 L 0 26 L 32 26 L 32 0 L 0 0 ZM 6 17 L 6 19 L 26 19 L 26 17 L 6 17 ZM 6 12 L 6 14 L 26 14 L 26 12 L 6 12 ZM 6 7 L 6 9 L 26 9 L 26 7 L 6 7 Z" fill="#2c1c16"/>	</g></svg>